<?xml version="1.0" encoding="UTF-8"?>
<svg xmlns="http://www.w3.org/2000/svg" width="427" height="53">
   <defs>
      <style type="text/css">
    @namespace "http://www.w3.org/2000/svg";
    .line                 {fill: none; stroke: #332900; stroke-width: 1;}
    .bold-line            {stroke: #141000; shape-rendering: crispEdges; stroke-width: 2;}
    .thin-line            {stroke: #1F1800; shape-rendering: crispEdges}
    .filled               {fill: #332900; stroke: none;}
    text.terminal         {font-family: Verdana, Sans-serif;
                            font-size: 12px;
                            fill: #141000;
                            font-weight: bold;
                          }
    text.nonterminal      {font-family: Verdana, Sans-serif;
                            font-size: 12px;
                            fill: #1A1400;
                            font-weight: normal;
                          }
    text.regexp           {font-family: Verdana, Sans-serif;
                            font-size: 12px;
                            fill: #1F1800;
                            font-weight: normal;
                          }
    rect, circle, polygon {fill: #332900; stroke: #332900;}
    rect.terminal         {fill: #FFDB4D; stroke: #332900; stroke-width: 1;}
    rect.nonterminal      {fill: #FFEC9E; stroke: #332900; stroke-width: 1;}
    rect.text             {fill: none; stroke: none;}
    polygon.regexp        {fill: #FFF4C7; stroke: #332900; stroke-width: 1;}
  </style>
   </defs>
   <polygon points="9 33 1 29 1 37"/>
   <polygon points="17 33 9 29 9 37"/>
   <rect x="31" y="19" width="38" height="32" rx="10"/>
   <rect x="29"
         y="17"
         width="38"
         height="32"
         class="terminal"
         rx="10"/>
   <text class="terminal" x="39" y="37">let</text>
   <a xmlns:xlink="http://www.w3.org/1999/xlink"
      xlink:href="#Id"
      xlink:title="Id">
      <rect x="109" y="19" width="32" height="32"/>
      <rect x="107" y="17" width="32" height="32" class="nonterminal"/>
      <text class="nonterminal" x="117" y="37">Id</text>
   </a>
   <rect x="161" y="19" width="30" height="32" rx="10"/>
   <rect x="159"
         y="17"
         width="30"
         height="32"
         class="terminal"
         rx="10"/>
   <text class="terminal" x="169" y="37">=</text>
   <a xmlns:xlink="http://www.w3.org/1999/xlink"
      xlink:href="#Expr"
      xlink:title="Expr">
      <rect x="211" y="19" width="48" height="32"/>
      <rect x="209" y="17" width="48" height="32" class="nonterminal"/>
      <text class="nonterminal" x="219" y="37">Expr</text>
   </a>
   <rect x="299" y="19" width="32" height="32" rx="10"/>
   <rect x="297"
         y="17"
         width="32"
         height="32"
         class="terminal"
         rx="10"/>
   <text class="terminal" x="307" y="37">in</text>
   <a xmlns:xlink="http://www.w3.org/1999/xlink"
      xlink:href="#Expr"
      xlink:title="Expr">
      <rect x="351" y="19" width="48" height="32"/>
      <rect x="349" y="17" width="48" height="32" class="nonterminal"/>
      <text class="nonterminal" x="359" y="37">Expr</text>
   </a>
   <path class="line"
         d="m17 33 h2 m0 0 h10 m38 0 h10 m20 0 h10 m32 0 h10 m0 0 h10 m30 0 h10 m0 0 h10 m48 0 h10 m-190 0 l20 0 m-1 0 q-9 0 -9 -10 l0 -12 q0 -10 10 -10 m170 32 l20 0 m-20 0 q10 0 10 -10 l0 -12 q0 -10 -10 -10 m-170 0 h10 m0 0 h160 m20 32 h10 m32 0 h10 m0 0 h10 m48 0 h10 m3 0 h-3"/>
   <polygon points="417 33 425 29 425 37"/>
   <polygon points="417 33 409 29 409 37"/>
</svg>
